HIERARCHY
ROOT Hips
{
	OFFSET 0.000000 0.000000 0.000000
	CHANNELS 6 Xposition Yposition Zposition Zrotation Yrotation Xrotation 
	JOINT LHipJoint
	{
		OFFSET 0.000000 0.000000 0.000000
		CHANNELS 3 Zrotation Yrotation Xrotation
		JOINT LeftUpLeg
		{
			OFFSET 1.363060 -1.794630 0.839290
			CHANNELS 3 Zrotation Yrotation Xrotation
			JOINT LeftLeg
			{
				OFFSET 2.448110 -6.726130 0.000000
				CHANNELS 3 Zrotation Yrotation Xrotation
				JOINT LeftFoot
				{
					OFFSET 2.562200 -7.039590 0.000000
					CHANNELS 3 Zrotation Yrotation Xrotation
					JOINT LeftToeBase
					{
						OFFSET 0.157640 -0.433110 2.322550
						CHANNELS 3 Zrotation Yrotation Xrotation
						End Site
						{
							OFFSET 0.000000 0.000000 0.000000
						}
					}
				}
			}
		}
	}
	JOINT RHipJoint
	{
		OFFSET 0.000000 0.000000 0.000000
		CHANNELS 3 Zrotation Yrotation Xrotation
		JOINT RightUpLeg
		{
			OFFSET -1.305520 -1.794630 0.839290
			CHANNELS 3 Zrotation Yrotation Xrotation
			JOINT RightLeg
			{
				OFFSET -2.542530 -6.985550 0.000000
				CHANNELS 3 Zrotation Yrotation Xrotation
				JOINT RightFoot
				{
					OFFSET -2.568260 -7.056230 0.000000
					CHANNELS 3 Zrotation Yrotation Xrotation
					JOINT RightToeBase
					{
						OFFSET -0.164730 -0.452590 2.363150
						CHANNELS 3 Zrotation Yrotation Xrotation
						End Site
						{
							OFFSET 0.000000 0.000000 0.000000
						}
					}
				}
			}
		}
	}
}
MOTION
Frames: 33
Frame Time: 0.008333
24.992394 16.274489 2.083987 140.771879 -85.892240 -121.138725 -7.945802 -0.009087 5.708990 -9.126469 -11.478080 -54.899567 -1.680147 0.607679 24.444098 1.141135 7.385506 5.912756 2.585300 -0.000000 -34.138600 11.564101 -4.709759 -0.300355 2.446394 -7.227994 4.739694 1.061469 -1.711654 19.434733 0.196599 5.070761 12.394310 1.557500 -0.000000 -88.871100
24.788473 16.311413 2.086129 137.477973 -85.871798 -117.931946 -7.774932 0.133123 5.674912 -9.700111 -11.648458 -54.225655 -1.690932 0.635568 25.016677 1.155686 7.469023 5.610954 2.559800 -0.000000 -33.393200 11.906669 -4.690709 -0.316633 1.847539 -7.728336 3.363041 0.734215 -1.936097 22.294449 0.016770 4.944416 15.367483 1.851200 -0.000001 -89.102600
24.588475 16.349649 2.089325 134.640147 -85.802272 -115.186509 -7.615974 0.281992 5.640192 -10.289270 -11.768533 -53.452647 -1.724772 0.649057 25.439232 1.165509 7.490920 5.129451 2.492200 0.000000 -32.607599 12.232824 -4.616358 -0.341054 1.260070 -8.271153 1.850629 0.416969 -2.118279 25.321007 -0.199483 4.714769 18.255455 2.098500 -0.000000 -88.088600
24.392621 16.388902 2.093775 132.264548 -85.697824 -112.903829 -7.472357 0.431696 5.607640 -10.876866 -11.847131 -52.596120 -1.777185 0.648253 25.714997 1.172972 7.467780 4.503722 2.392399 0.000000 -31.804900 12.531724 -4.490842 -0.371009 0.710411 -8.825932 0.226080 0.127603 -2.260223 28.466543 -0.442771 4.306252 20.918610 2.232200 0.000000 -85.858199
24.200738 16.428999 2.100045 130.387356 -85.581549 -111.113219 -7.352732 0.573972 5.578841 -11.433422 -11.882612 -51.684315 -1.841203 0.634515 25.862135 1.179224 7.407444 3.770810 2.267700 -0.000001 -31.015800 12.787746 -4.326113 -0.403339 0.242620 -9.356081 -1.489159 -0.120298 -2.371346 31.681574 -0.700340 3.637353 23.215855 2.176800 0.000000 -82.630799
24.012991 16.469963 2.107538 128.848468 -85.455706 -109.657030 -7.248434 0.709970 5.555288 -11.960948 -11.897317 -50.713808 -1.914125 0.607088 25.874205 1.187965 7.341455 2.979316 2.133600 -0.000000 -30.273901 13.007326 -4.130013 -0.441993 -0.153671 -9.860353 -3.271715 -0.324482 -2.465017 34.922297 -0.958534 2.675016 25.023880 1.887800 -0.000001 -78.796800
23.829354 16.511872 2.116321 127.611425 -85.333402 -108.499738 -7.162141 0.835526 5.536258 -12.442887 -11.894694 -49.700417 -1.990330 0.567527 25.765419 1.200365 7.282486 2.169308 1.997899 0.000000 -29.611700 13.186124 -3.915159 -0.486662 -0.458883 -10.316354 -5.102572 -0.488993 -2.555148 38.143807 -1.207492 1.399665 26.256003 1.346301 0.000000 -74.788500
23.649689 16.554886 2.126152 126.611945 -85.219748 -107.577319 -7.092548 0.949416 5.520467 -12.872770 -11.882774 -48.650148 -2.065914 0.516991 25.543577 1.217500 7.245218 1.378060 1.868800 -0.000000 -29.054600 13.326612 -3.691140 -0.537171 -0.670227 -10.708722 -6.964254 -0.623551 -2.652507 41.306393 -1.440930 -0.158566 26.865807 0.581399 0.000000 -70.968600
23.473841 16.599080 2.137311 125.861212 -85.129762 -106.897740 -7.046529 1.046953 5.505090 -13.230751 -11.854131 -47.584140 -2.135536 0.458191 25.233405 1.237828 7.225843 0.629075 1.747400 0.000000 -28.616200 13.424422 -3.469284 -0.589854 -0.764406 -11.012521 -8.846549 -0.738187 -2.763601 44.374357 -1.655521 -1.938695 26.842429 -0.342499 -0.000000 -67.547700
23.301893 16.644567 2.149157 125.276821 -85.056276 -106.386179 -7.017569 1.130541 5.487175 -13.528280 -11.818733 -46.491772 -2.198734 0.391902 24.833844 1.261751 7.236997 -0.053058 1.639300 0.000000 -28.294800 13.489852 -3.251585 -0.644656 -0.765535 -11.225147 -10.733368 -0.842852 -2.890578 47.317309 -1.848977 -3.830657 26.206898 -1.321800 -0.000000 -64.590100
23.133233 16.691251 2.161918 124.889503 -85.009590 -106.071171 -7.011484 1.197183 5.462861 -13.753996 -11.764901 -45.387410 -2.252691 0.320705 24.367786 1.286239 7.264689 -0.662862 1.542100 -0.000000 -28.077600 13.520695 -3.044775 -0.696879 -0.661472 -11.329793 -12.616366 -0.942986 -3.031907 50.104204 -2.020059 -5.728802 25.010932 -2.255400 0.000001 -62.042400
22.967837 16.739024 2.175337 124.684113 -84.986624 -105.940306 -7.026294 1.248230 5.428348 -13.916200 -11.689352 -44.265311 -2.297950 0.245787 23.841372 1.309408 7.302933 -1.197287 1.455200 0.000001 -27.941100 13.522323 -2.850078 -0.743876 -0.468331 -11.323802 -14.481970 -1.041196 -3.183529 52.705590 -2.167250 -7.520883 23.331881 -3.048100 -0.000000 -59.801701
22.805271 16.787640 2.189697 124.695886 -84.994860 -106.028440 -7.066814 1.282183 5.380971 -14.008511 -11.580213 -43.134807 -2.333568 0.169115 23.272999 1.328132 7.333559 -1.664903 1.374400 0.000001 -27.857800 13.492535 -2.671202 -0.781104 -0.181833 -11.200833 -16.322679 -1.136338 -3.339688 55.093628 -2.288926 -9.118447 21.266374 -3.635199 0.000000 -57.690700
22.645519 16.836637 2.204141 124.884211 -85.015776 -106.305861 -7.122059 1.304674 5.314244 -14.066244 -11.432652 -41.965202 -2.365216 0.090159 22.647498 1.340837 7.352167 -2.068423 1.299300 -0.000000 -27.799300 13.444312 -2.502598 -0.808160 0.151038 -10.971384 -18.115925 -1.226091 -3.494761 57.242769 -2.384048 -10.448042 18.941198 -3.983001 0.000000 -55.812900
22.487598 16.885792 2.219556 125.319051 -85.065682 -106.831300 -7.202556 1.312965 5.232048 -14.066252 -11.237806 -40.784840 -2.390053 0.010885 21.991340 1.345100 7.337630 -2.427112 1.224700 0.000000 -27.738700 13.367890 -2.350171 -0.819399 0.552815 -10.635525 -19.868345 -1.305336 -3.642513 59.137006 -2.449913 -11.472245 16.457437 -4.095000 -0.000001 -53.804000
22.331763 16.934444 2.235440 126.002643 -85.133172 -107.623453 -7.302508 1.310398 5.124177 -14.038766 -10.970895 -39.565557 -2.413722 -0.068473 21.297177 1.337359 7.269774 -2.752160 1.146600 -0.000001 -27.661401 13.270488 -2.209933 -0.816343 0.991109 -10.205309 -21.554220 -1.370338 -3.778676 60.759402 -2.487053 -12.181073 13.951064 -4.007100 0.000000 -51.914000
22.177197 16.982319 2.252170 126.951240 -85.220978 -108.687052 -7.423345 1.298604 4.998826 -13.976473 -10.640521 -38.326360 -2.435587 -0.147751 20.572222 1.318310 7.146312 -3.054703 1.064700 -0.000000 -27.553900 13.149708 -2.082177 -0.796012 1.465897 -9.696213 -23.185655 -1.417329 -3.898966 62.106334 -2.494601 -12.580863 11.511282 -3.766000 -0.000000 -49.938800
22.023064 17.028845 2.269498 128.140561 -85.321940 -109.991483 -7.559873 1.281556 4.862260 -13.888839 -10.257186 -37.075771 -2.457367 -0.227341 19.814928 1.289210 6.970222 -3.341232 0.980000 -0.000000 -27.414400 13.009341 -1.963107 -0.756830 1.961111 -9.126562 -24.772275 -1.444577 -4.000427 63.178397 -2.474521 -12.700192 9.226023 -3.429200 -0.000000 -47.985201
21.870126 17.073626 2.287708 129.654559 -85.440630 -111.643754 -7.718879 1.257551 4.698437 -13.784046 -9.766326 -35.794024 -2.481576 -0.304686 19.039219 1.243499 6.699586 -3.625078 0.886000 0.000000 -27.265000 12.845220 -1.855357 -0.705663 2.479748 -8.508279 -26.279563 -1.450662 -4.082827 63.973057 -2.429961 -12.584080 7.147716 -3.048800 0.000000 -46.105000
21.716957 17.116314 2.306397 131.390801 -85.566146 -113.514388 -7.889105 1.233343 4.529719 -13.663218 -9.225380 -34.515242 -2.507290 -0.381512 18.238958 1.188404 6.371993 -3.898747 0.791200 -0.000000 -27.111399 12.664490 -1.752249 -0.637673 3.004124 -7.863727 -27.747015 -1.436353 -4.144177 64.501488 -2.364969 -12.275440 5.305942 -2.664400 0.000000 -44.353701
21.563686 17.156566 2.325511 133.347344 -85.698174 -115.609074 -8.070527 1.209824 4.352884 -13.531001 -8.621776 -33.239317 -2.535206 -0.456255 17.424617 1.122517 5.976072 -4.163414 0.695300 0.000001 -26.981000 12.467473 -1.653129 -0.556785 3.532059 -7.205377 -29.164125 -1.402106 -4.185039 64.769407 -2.284453 -11.823957 3.698197 -2.302100 0.000000 -42.778000
21.409808 17.194135 2.344727 135.473610 -85.833387 -117.873407 -8.258821 1.189585 4.171977 -13.391088 -7.966878 -31.975416 -2.565319 -0.528288 16.602337 1.047269 5.517672 -4.414358 0.601200 -0.000000 -26.896300 12.257638 -1.555835 -0.464559 4.055677 -6.545715 -30.532229 -1.348511 -4.206032 64.784291 -2.193308 -11.273659 2.300053 -1.974800 -0.000000 -41.399700
21.255399 17.228771 2.363709 137.687645 -85.969148 -120.222123 -8.448386 1.175130 3.991295 -13.248199 -7.277410 -30.731291 -2.597464 -0.597070 15.778457 0.964653 5.006704 -4.645764 0.511800 0.000001 -26.874700 12.039604 -1.458136 -0.362301 4.565151 -5.894716 -31.852251 -1.275904 -4.208312 64.554278 -2.096042 -10.661729 1.070212 -1.685500 0.000000 -40.216600
21.100592 17.260437 2.382252 139.947669 -86.106618 -122.620493 -8.637393 1.166346 3.808142 -13.103215 -6.554106 -29.504674 -2.631262 -0.661228 14.962440 0.874956 4.442939 -4.854095 0.428100 -0.000000 -26.929300 11.815228 -1.359584 -0.254164 5.056195 -5.257821 -33.109300 -1.183701 -4.193264 64.081025 -1.996920 -10.020907 -0.037351 -1.432100 0.000000 -39.206300
20.945010 17.288871 2.399772 142.105439 -86.243657 -124.912095 -8.817395 1.165916 3.629446 -12.962991 -5.827867 -28.301536 -2.666446 -0.721235 14.156768 0.781748 3.846994 -5.033953 0.352900 -0.000001 -27.055500 11.591509 -1.258105 -0.139355 5.513253 -4.641974 -34.306963 -1.071648 -4.162243 63.371335 -1.899173 -9.372182 -1.068060 -1.209400 -0.000000 -38.341299
20.788809 17.314059 2.416061 144.098575 -86.382334 -127.040653 -8.986437 1.172698 3.451889 -12.829081 -5.101986 -27.114568 -2.702701 -0.776513 13.366636 0.685869 3.222447 -5.184958 0.286100 0.000000 -27.246500 11.370412 -1.154017 -0.021056 5.929921 -4.048927 -35.429232 -0.938857 -4.116424 62.424016 -1.805872 -8.734155 -2.055256 -1.013200 -0.000000 -37.593199
20.632078 17.335901 2.430893 145.838183 -86.523913 -128.918076 -9.141287 1.186085 3.275017 -12.704222 -4.388632 -25.935912 -2.739621 -0.827444 12.592302 0.589322 2.580355 -5.308190 0.227800 -0.000000 -27.484400 11.154845 -1.047622 0.099175 6.296975 -3.481214 -36.464736 -0.785013 -4.056444 61.238048 -1.719533 -8.119572 -3.016256 -0.840400 0.000001 -36.943400
20.474624 17.354246 2.443918 147.194450 -86.669914 -130.409126 -9.277526 1.205795 3.103466 -12.591540 -3.711036 -24.769029 -2.776661 -0.875237 11.834239 0.495335 1.939950 -5.408110 0.178199 -0.000000 -27.743000 10.948017 -0.939049 0.223815 6.605687 -2.939898 -37.418378 -0.611134 -3.982363 59.815677 -1.642501 -7.538877 -3.949638 -0.690100 0.000000 -36.385200
20.316568 17.368990 2.455101 148.108362 -86.821624 -131.453312 -9.394688 1.230510 2.937455 -12.491444 -3.075938 -23.610179 -2.813401 -0.920763 11.092999 0.405539 1.310330 -5.493143 0.136300 0.000000 -27.999300 10.750320 -0.829978 0.354033 6.853323 -2.424385 -38.286424 -0.419117 -3.893412 58.156032 -1.576745 -7.002317 -4.835890 -0.562800 0.000000 -35.921800
20.157851 17.380151 2.464566 148.590843 -86.976209 -132.068045 -9.494513 1.257375 2.771283 -12.403121 -2.478353 -22.442750 -2.849298 -0.964654 10.360730 0.321001 0.698491 -5.570116 0.101200 -0.000000 -28.237900 10.560811 -0.721481 0.486319 7.039517 -1.935156 -39.053518 -0.211909 -3.788421 56.255957 -1.523319 -6.518943 -5.639630 -0.460200 -0.000000 -35.566900
19.998048 17.387524 2.472264 148.565549 -87.135430 -132.159734 -9.575598 1.287108 2.614810 -12.326213 -1.937539 -21.290630 -2.883950 -1.008556 9.645509 0.244178 0.119266 -5.653952 0.072200 -0.000000 -28.438800 10.380152 -0.615926 0.630090 7.167752 -1.468770 -39.746524 0.005540 -3.665403 54.122153 -1.483286 -6.099747 -6.318353 -0.384600 0.000000 -35.327300
19.837416 17.391169 2.478423 148.103473 -87.291202 -131.809183 -9.640625 1.317066 2.459671 -12.260255 -1.440682 -20.129896 -2.916888 -1.052965 8.933753 0.175537 -0.421671 -5.750234 0.048701 0.000000 -28.605100 10.207776 -0.514000 0.779878 7.240501 -1.027088 -40.346908 0.228620 -3.522717 51.753402 -1.455463 -5.750366 -6.825566 -0.338200 -0.000000 -35.222800
19.675639 17.390941 2.483122 147.187571 -87.444519 -130.981870 -9.689983 1.348122 2.314660 -12.203384 -0.998574 -18.991869 -2.947992 -1.098738 8.239183 0.116127 -0.917799 -5.874149 0.030100 0.000000 -28.735800 10.043759 -0.418634 0.945526 7.267180 -0.605187 -40.884699 0.451933 -3.358014 49.158514 -1.439017 -5.478752 -7.121160 -0.323400 0.000000 -35.238900
